<?xml version="1.0" encoding="UTF-8" standalone="no"?>
<svg
   width="865.76"
   height="682.89"
   viewBox="0 0 865.76 682.89"
   version="1.1"
   id="svg198"
   sodipodi:docname="intro.svg"
   inkscape:version="1.2.2 (b0a84865, 2022-12-01)"
   xmlns:inkscape="http://www.inkscape.org/namespaces/inkscape"
   xmlns:sodipodi="http://sodipodi.sourceforge.net/DTD/sodipodi-0.dtd"
   xmlns="http://www.w3.org/2000/svg"
   xmlns:svg="http://www.w3.org/2000/svg">
  <defs
     id="defs202" />
  <sodipodi:namedview
     id="namedview200"
     pagecolor="#ffffff"
     bordercolor="#000000"
     borderopacity="0.25"
     inkscape:showpageshadow="2"
     inkscape:pageopacity="0.0"
     inkscape:pagecheckerboard="0"
     inkscape:deskcolor="#d1d1d1"
     showgrid="false"
     inkscape:zoom="1.4970113"
     inkscape:cx="543.08207"
     inkscape:cy="404.13857"
     inkscape:window-width="1470"
     inkscape:window-height="826"
     inkscape:window-x="0"
     inkscape:window-y="37"
     inkscape:window-maximized="0"
     inkscape:current-layer="svg198" />
  <path
     d="M252.84,536.62S35.18,555.35,38.22,383.1c0,0-12.06-135,87-215.47a200.12,200.12,0,0,1,84.66-40c24.78-5.27,67.1-16.82,110.71-40.25,0,0,188.47-135.62,391.14-10.66,0,0,152.38,99,108.19,265.13,0,0-28.25,175.9-299.09,166.43C520.87,508.31,344,531.71,252.84,536.62Z"
     fill="#4438e0"
     id="path2" />
  <path
     d="m 253.82861,536.37285 c 0,0 -217.660001,18.73 -214.620001,-153.52 0,0 -12.06,-135 87.000001,-215.47 a 200.12,200.12 0 0 1 84.66,-40 c 24.78,-5.27 67.1,-16.82 110.71,-40.250002 0,0 188.47,-135.62 391.14,-10.66 0,0 152.38,99.000002 108.19,265.130002 0,0 -28.25,175.9 -299.09,166.43 0.04,0.03 -176.83,23.43 -267.99,28.34 z"
     fill="#ffffff"
     opacity="0.7"
     style="isolation:isolate"
     id="path4" />
  <ellipse
     cx="410.25"
     cy="614.61"
     rx="308.64"
     ry="44.44"
     fill="#4438e0"
     id="ellipse6" />
  <ellipse
     cx="410.25"
     cy="614.61"
     rx="308.64"
     ry="44.44"
     fill="#fff"
     opacity="0.7"
     style="isolation:isolate"
     id="ellipse8" />
  <rect
     x="137.34"
     y="211.98"
     width="171.73"
     height="134.93"
     rx="5.93"
     fill="#4438e0"
     opacity="0.24"
     id="rect10" />
  <path
     d="M301.8,347.53H144.61a7.9,7.9,0,0,1-7.88-7.89V219.25a7.89,7.89,0,0,1,7.88-7.88H301.8a7.89,7.89,0,0,1,7.89,7.88V339.64A7.9,7.9,0,0,1,301.8,347.53ZM144.61,212.6a6.65,6.65,0,0,0-6.65,6.65V339.64a6.66,6.66,0,0,0,6.65,6.66H301.8a6.67,6.67,0,0,0,6.66-6.66V219.25a6.66,6.66,0,0,0-6.66-6.65Z"
     fill="#2f2e41"
     id="path12" />
  <path
     d="M148.65,346.91H298s-24.45-45.38-69.84-46.61c0,0-36.73-7.88-65,18.75A57.6,57.6,0,0,0,148.65,346.91Z"
     fill="#2f2e41"
     id="path14" />
  <path
     d="M328.17,85.64H227.41A5.43,5.43,0,0,0,222,91.07v70.09a5.44,5.44,0,0,0,5.43,5.44h41l10,22.64,11.22-22.64h38.54a5.45,5.45,0,0,0,5.44-5.44V91.07A5.44,5.44,0,0,0,328.17,85.64Z"
     fill="#4438e0"
     id="path16" />
  <path
     d="M547.15,105.26l-24.64-5.33v-10A16.55,16.55,0,0,0,506,73.37H433.57A16.55,16.55,0,0,0,417,89.93v50.3a16.55,16.55,0,0,0,16.55,16.55H506a16.55,16.55,0,0,0,16.56-16.55V116.47Z"
     fill="#4438e0"
     id="path18" />
  <path
     d="M623.1,171.5c-4.91,1.23-31.84,29.44-31.84,29.44H728.6s2.44-34.34-13.51-40.48c0,0-11-7.36-11,3.68l-13.5,14.72-37.41-15.74Z"
     fill="#4438e0"
     id="path20" />
  <path
     d="M531.1,399.66h-168l2.23-126.22a12.61,12.61,0,0,1,12.61-12.39H514.48A13.28,13.28,0,0,1,527.76,274Z"
     fill="#b3b3b3"
     id="path22" />
  <rect
     x="290.67"
     y="440.14"
     width="6.13"
     height="192.58"
     fill="#ccc"
     id="rect24" />
  <rect
     x="310.3"
     y="437.69"
     width="6.13"
     height="174.18"
     fill="#ccc"
     id="rect26" />
  <rect
     x="596.11"
     y="438.91"
     width="6.13"
     height="192.58"
     transform="translate(1198.35 1070.41) rotate(-180)"
     fill="#ccc"
     id="rect28" />
  <rect
     x="576.48"
     y="438.91"
     width="6.13"
     height="174.18"
     transform="translate(1159.1 1052.01) rotate(-180)"
     fill="#ccc"
     id="rect30" />
  <rect
     x="356.43"
     y="438.62"
     width="5.82"
     height="157.28"
     transform="translate(30.03 -19.62) rotate(3.26)"
     fill="#ccc"
     id="rect32" />
  <rect
     x="530.62"
     y="438.62"
     width="5.82"
     height="157.28"
     transform="translate(1095.64 1003.31) rotate(176.74)"
     fill="#ccc"
     id="rect34" />
  <path
     d="m 452.4459,548.03741 18.47573,21.43503 c 15.67215,18.93081 20.83356,6.81677 20.83356,6.81677 l -4.90843,-21.48551 c -14.60123,9.08264 -34.53146,-15.73215 -34.53146,-15.73215 z"
     fill="#f9b499"
     id="path36"
     style="stroke-width:1.06289"
     sodipodi:nodetypes="cccccc" />
  <path
     d="m 451.92933,556.97613 c 8.93122,0.26938 14.6922,17.95899 14.6922,17.95899 l 16.1921,13.66678 c 18.51865,17.46512 22.36215,9.6799 22.36215,9.6799 l -15.61327,-30.57374 c 0,0 -3.73204,8.45724 -19.04636,-4.64384 L 452.43213,548.2301 Z"
     fill="#4438e0"
     id="path38"
     style="stroke-width:0.874785"
     sodipodi:nodetypes="cccccccc" />
  <path
     d="m 451.76885,566.35309 a 4.9155681,5.2270023 0 0 0 1.76585,4.08952 l 23.61001,20.90801 c 10.50183,10.39985 18.99158,12.81924 18.99158,12.81924 10.55278,2.00415 8.83784,-6.73461 8.83784,-6.73461 0,0 -3.82888,7.82696 -22.27711,-9.73179 L 466.56649,573.9634 c 0,0 -5.7391,-17.80251 -14.63635,-18.05528 z"
     fill="#e6e6e6"
     id="path40"
     style="stroke-width:0.875457" />
  <path
     d="m 496.22156,444.14098 c -0.0444,4.16349 -1.03557,12.20708 -1.40695,17.18882 -0.16217,2.24413 -0.9166,9.66117 -1.23817,11.86902 l -5.10011,56.78792 -1.76795,24.92831 c -16.32412,13.1587 -34.21572,-15.75797 -34.21572,-15.60404 l -0.0375,-16.19483 0.84745,-12.85597 c 2.57053,-38.16935 3.43685,-66.36639 3.43685,-66.36639 z"
     fill="#2f2e41"
     id="path42"
     style="stroke-width:0.666833"
     sodipodi:nodetypes="cccccccccc" />
  <path
     d="m 486.98498,543.68195 -0.35114,11.28959 c -3.92877,3.03239 -7.99502,3.57819 -11.89376,2.69363 -11.68048,-2.6501 -21.8575,-18.1388 -22.32985,-18.0633 l -0.006,-14.27578 c 13.41496,12.49615 16.90302,26.90536 34.93005,20.45197 z"
     opacity="0.3"
     id="path46"
     style="stroke-width:0.644837"
     sodipodi:nodetypes="ccscccc" />
  <path
     d="m 440.58427,539.8389 -4.80862,7.56376 c -8.01034,8.842 -14.13889,11.23637 -18.60467,10.93401 -5.03644,-0.3792 -7.9409,-4.8291 -9.41188,-11.84669 -0.87068,-4.13498 -2.6383,-13.62633 -4.07134,-17.47272 -7.68454,-42.17519 -10.75006,-85.86355 -10.75006,-85.86355 l 37.6401,-0.0893 7.8943,78.80149 z"
     fill="#2f2e41"
     id="path48"
     style="stroke-width:0.677529"
     sodipodi:nodetypes="ccccccccc" />
  <path
     d="m 439.60712,534.33168 0.91396,7.80147 c -7.97347,8.83441 -18.76968,16.66409 -23.21491,16.36198 -5.01324,-0.3789 -7.58003,-5.61879 -9.04424,-12.63036 -0.86669,-4.13142 -1.67745,-4.08831 -2.47144,-8.40754 8.26315,3.5184 22.2963,15.94417 32.64945,-15.23481 z"
     opacity="0.3"
     id="path50"
     style="stroke-width:0.675677"
     sodipodi:nodetypes="ccccccc" />
  <path
     d="m 442.12766,548.22583 -12.78782,10.05259 c -10.37744,6.34162 -17.47855,2.95009 -17.47855,2.99056 l -3.3903,-12.15775 c 21.23079,11.26294 32.13926,-9.81062 32.13926,-9.81062 z"
     fill="#f9b499"
     id="path52"
     style="stroke-width:0.731476"
     sodipodi:nodetypes="cccccc" />
  <path
     d="m 443.27781,557.48786 c -9.9757,2.45358 -13.80596,12.52449 -13.80596,12.52449 l -12.62089,11.57501 c -10.50233,6.75087 -15.8529,9.73388 -26.6296,11.40473 l 21.90779,-32.10079 c 0,0 3.65789,5.82774 24.66143,-8.74306 l 5.23459,-3.75019 z"
     fill="#4438e0"
     id="path54"
     style="stroke-width:0.823404"
     sodipodi:nodetypes="cccccccc" />
  <path
     d="m 435.34969,573.80408 -7.78486,7.16782 c -8.69099,9.16808 -20.6734,13.82796 -20.6734,13.82796 -11.95009,3.77544 -16.66222,-2.40253 -16.66222,-2.40253 -0.013,-0.0817 10.31986,2.1915 26.13408,-11.35882 l 13.25787,-11.40038 c 0,0 2.73587,-9.92587 13.39319,-12.18866 -0.29044,6.50618 -1.80082,11.13874 -7.66466,16.35461 z"
     fill="#e6e6e6"
     id="path56"
     style="stroke-width:0.817315"
     sodipodi:nodetypes="cccccccc" />
  <polygon
     points="280.86 435.23 333.61 381.26 570.35 381.26 610.83 435.23 280.86 435.23"
     fill="#ccc"
     id="polygon58" />
  <path
     d="M476.82,221.67c.69,8,2.16,23.36,3.45,27,0,0-2.48-1.1-6-2.42a54.27,54.27,0,0,0-12.77-3.1l-5.61-.68c.18-.13.36-.28.55-.43A26,26,0,0,0,465,229s0-.09,0-.13a38.12,38.12,0,0,0,1.47-7.45c0-.33.07-.66.09-1h0l0-.64v-.07c.09-1.73,0-2.8,0-2.8h0c-11.64,0-17.76-6.13-17.76-6.13,0,4.9,2.81,6.13,2.81,6.13C438.57,215.66,431.13,199,431.13,199c-3.07,6.66-9.79,10.2-9.79,10.2h0c0,2.14,0,4.59-1.22,6.41-.47.72,0,1.7,0,2.48,0,.24,0,.47,0,.71,0,.63,0,1.27.07,1.9,0,.26,0,.48,0,.62s0,.29,0,.29,0,0,0,.07c1.37,7.62,3.68,12.09,6,15.42a23.08,23.08,0,0,0,6.21,6.46,78,78,0,0,0-25.22,8.87s4.9-8.58,3.68-33.12c0,0-1.23-42.93,22.08-40.48,0,0,19.62-12.26,36.79,4.91,0,0,15.58,18.87,8.8,30.44A12.68,12.68,0,0,0,476.82,221.67Z"
     fill="#2f2e41"
     id="path60" />
  <path
     d="M415.77,248.33s3.59-8.45,3-15.65c0,0,3.08.75,4.33-.78,0,0,3.09,7.68,9.3,11.69C432.43,243.59,425.57,244.21,415.77,248.33Z"
     opacity="0.2"
     id="path62" />
  <path
     d="M466.7,218.42c0,.42,0,.85,0,1.27v.07l0,.64h0a38.86,38.86,0,0,1-1.56,8.44s0,.08,0,.13a28.18,28.18,0,0,1-8.62,13.09c-.19.15-.37.3-.55.43a20.15,20.15,0,0,1-12.48,4.44,19.87,19.87,0,0,1-11-3.35,24.62,24.62,0,0,1-6.17-5.86c-2.3-3.32-4.65-8.4-6-16,0,0,0-.05,0-.07s0-.2,0-.29,0-.36,0-.62c0-.49-.06-1.14-.07-1.9,0-.24,0-.47,0-.71,0-.85,0-1.7.12-2.53a32.17,32.17,0,0,1,1.13-6.36h0s6.72-3.54,9.79-10.2c0,0,7.44,16.64,20.59,17.87,0,0-2.81-1.23-2.81-6.13,0,0,6.12,6.12,17.76,6.13Q466.7,217.66,466.7,218.42Z"
     fill="#f9b499"
     id="path64" />
  <path
     d="M420.09,218.12c0,.24,0,.47,0,.71,0-.14,0-.27,0-.41Z"
     fill="none"
     stroke="red"
     stroke-miterlimit="10"
     stroke-width="0.5"
     id="path66" />
  <path
     d="M420.1,218.83c0,.63,0,1.27.07,1.9C420.15,220.24,420.11,219.59,420.1,218.83Z"
     fill="none"
     stroke="red"
     stroke-miterlimit="10"
     stroke-width="0.5"
     id="path68" />
  <path
     d="M466.64,220.41q0,.47-.09,1C466.58,221.07,466.62,220.74,466.64,220.41Z"
     fill="none"
     stroke="red"
     stroke-miterlimit="10"
     stroke-width="0.5"
     id="path70" />
  <path
     d="M465.08,228.85a38.12,38.12,0,0,0,1.47-7.45A33.23,33.23,0,0,1,465.08,228.85Z"
     fill="none"
     stroke="red"
     stroke-miterlimit="10"
     stroke-width="0.5"
     id="path72" />
  <path
     d="M471.94,220.07l-5.3.33,0-.64v-.07c0-.42,0-.85,0-1.27s0-1,0-1.53c-11.64,0-17.76-6.13-17.76-6.13,0,4.9,2.81,6.13,2.81,6.13C438.57,215.66,431.13,199,431.13,199c-3.07,6.66-9.79,10.2-9.79,10.2h0a32.17,32.17,0,0,0-1.13,6.36l-.09,0,0,0a6.42,6.42,0,0,0-4.95,2.76s-4.25-24.84,14.15-31c0,0,4-5.67,14.11-6.48a28.72,28.72,0,0,1,13.13,2.19c7.1,2.89,18.44,9.11,13.23,17.78C469.76,200.94,479,208.54,471.94,220.07Z"
     opacity="0.2"
     id="path74" />
  <path
     d="M471.16,231.9s-1,9.42,3.09,14.38c0,0-6.52-2.7-18.38-3.78a23.85,23.85,0,0,0,7.7-9.66A5.56,5.56,0,0,0,471.16,231.9Z"
     opacity="0.2"
     id="path76" />
  <path
     d="m 383.05407,333.42 c 0,0 -7.70407,-51.94 3.29593,-67.06 0,0 14.4,-16.35 33,-19.42 l 6.95,20.7 36.14,-0.46 5.64,-23 c 0,0 36.23569,5.83 37.45569,34 l 1.04627,55.2 z"
     fill="#4438e0"
     id="path78"
     sodipodi:nodetypes="ccccccccc" />
  <path
     d="M468.05,244.18l-5.65,23-36.14.47-6.95-20.71a67.22,67.22,0,0,1,8.14-2.45,45,45,0,0,1,4.61-.82l.16,0,.21,0a19.87,19.87,0,0,0,11,3.35,20.15,20.15,0,0,0,12.48-4.44C456.69,242.35,468.05,244.18,468.05,244.18Z"
     fill="#f9b499"
     id="path80" />
  <path
     d="M461.48,243.18C458.11,253.52,446,255.07,446,255.07c-15.15,1.38-18.58-10.58-18.58-10.58l4.61-.82.16,0,.21,0a19.87,19.87,0,0,0,11,3.35,20.15,20.15,0,0,0,12.48-4.44Z"
     fill="#f7a48b"
     id="path82" />
  <path
     d="M400.09,333.42s-5.15-39.25,14.48-52.75c0,0-14.23,36.8-4.66,52.75Z"
     opacity="0.2"
     id="path84" />
  <path
     d="M472,333.42a13.67,13.67,0,0,1,2.1-8.77,13.39,13.39,0,0,1,2.48-2.78c1.49-1.29,5.09-5.12,6.31-12.62a29.82,29.82,0,0,0,.09-8.28c-.57-4.64-1.95-13.45-4.59-17.84,0,0,10.81,6.88,11.32,23.27a30.16,30.16,0,0,1-1,8.56c-1.16,4.43-2.9,13.86,1.8,18.46Z"
     opacity="0.2"
     id="path94" />
  <rect
     x="280.86"
     y="435.23"
     width="329.97"
     height="8.59"
     fill="#b3b3b3"
     id="rect96" />
  <path
     d="M506.67,397.81h21.62a5,5,0,0,0,5-4.39c.84-7.08-.72-20-24.14-18.26Z"
     fill="#e6e6e6"
     id="path98" />
  <path
     d="M641.5,273.31c0,16.94-20.33,30.67-45.39,30.67-.75,0-1.48,0-2.21,0-3.67,4.69-12.42,12.07-29.68,8.63,0,0,9.87-.28,11.39-11.9-14.77-5-24.89-15.4-24.89-27.36,0-16.94,20.33-30.66,45.39-30.66S641.5,256.37,641.5,273.31Z"
     fill="#4438e0"
     id="path100" />
  <rect
     x="570.35"
     y="257.37"
     width="51.52"
     height="4.91"
     fill="#fff"
     id="rect102" />
  <rect
     x="570.35"
     y="270.86"
     width="51.52"
     height="4.91"
     fill="#fff"
     id="rect104" />
  <rect
     x="570.35"
     y="284.35"
     width="51.52"
     height="4.91"
     fill="#fff"
     id="rect106" />
  <rect
     x="565.44"
     y="54.97"
     width="175.41"
     height="145.97"
     rx="5.93"
     fill="#4438e0"
     opacity="0.24"
     id="rect108" />
  <path
     d="M733.58,201.56H572.71a7.9,7.9,0,0,1-7.88-7.89V62.24a7.89,7.89,0,0,1,7.88-7.88H733.58a7.89,7.89,0,0,1,7.89,7.88V193.67A7.9,7.9,0,0,1,733.58,201.56Zm-160.87-146a6.66,6.66,0,0,0-6.65,6.66V193.67a6.66,6.66,0,0,0,6.65,6.66H733.58a6.67,6.67,0,0,0,6.66-6.66V62.24a6.67,6.67,0,0,0-6.66-6.66Z"
     fill="#2f2e41"
     id="path110" />
  <path
     d="M682,118.14c0,17.28-12,31.27-27.6,31.9-15.34.61-28.83-14.62-28.83-31.9s12.63-31.28,28.21-31.28S682,100.87,682,118.14Z"
     fill="#f9b499"
     id="path112" />
  <path
     d="M715.09,160.46s-4.37-2.92-7.61-2.33h0c-1.92.35-3.42,1.92-3.42,6,0,0-1.23,7.36-7.36,17.18a20.69,20.69,0,0,0-4.91,9.81,21.6,21.6,0,0,1-1.24-12.23v0S682,186.22,682,200.94H648.86s-1.23-11,7.36-15.94c0,0,13.49-4.91,12.26-14.72,0,0-3.68-7,7.36-17.62,0,0,7.36-5.78,6.14-12.47L680.55,128l.74-16.69S664.8,120,648.86,100.36a17.51,17.51,0,0,0,1.22,13.49s-8.58,0-13.49-7.36a43.32,43.32,0,0,0,4.91,12.27s-7.36-2.46-11-6.14a27,27,0,0,0,2.68,26.87s10.69,15.37,31,7.75l.67,12-11.65,3.88-30,8.38s-3.68-5.49,2.45-15c0,0,5.38-5.13,2-17.9a22.74,22.74,0,0,0-1.7-4.37A58.11,58.11,0,0,1,620,113.41a38.37,38.37,0,0,1,7.38-26.55S651.31,56.2,678.3,74.6c0,0,12.79-1.71,20.59,15.5a37.56,37.56,0,0,1,3,10.21,42.67,42.67,0,0,1,.28,9.52c-.76,9.1-1.45,24.33,1.93,28.55C704.06,138.38,713.87,149.42,715.09,160.46Z"
     fill="#2f2e41"
     id="path114" />
  <path
     d="M690.56,178.86S682,186.22,682,200.94H648.86s-1.05-9.42,5.55-14.72h0a12.34,12.34,0,0,1,1.8-1.22s13.49-4.91,12.26-14.72c0,0-3.68-7,7.36-17.62,0,0,7.36-5.78,6.14-12.47L680.55,128l.74-16.69S664.8,120,648.86,100.36a17.51,17.51,0,0,0,1.22,13.49s-8.58,0-13.49-7.36a43.32,43.32,0,0,0,4.91,12.27s-7.36-2.46-11-6.14a27,27,0,0,0,2.68,26.87s10.69,15.37,31,7.75l.67,12-11.65,3.88-30,8.38s-3.68-5.49,2.45-15c0,0,5.38-5.13,2-17.9a22.74,22.74,0,0,0-1.7-4.37A58.11,58.11,0,0,1,620,113.41s4.3-21.64,22.7-19.19c0,0,8.59,3.68,15.95-2.45,0,0,8.45-8.45,18-2.34a16.66,16.66,0,0,1,6.4,8.06,29.19,29.19,0,0,1,1.4,16.36s-2.45,9.81,7.36,25.76C691.79,139.61,700.38,149.42,690.56,178.86Z"
     opacity="0.2"
     id="path116" />
  <path
     d="M715.09,160.46s-4.37-2.92-7.61-2.33l-4.4-6.55a42.69,42.69,0,0,1-6.61-31.06,127.24,127.24,0,0,1,5.38-20.21,42.67,42.67,0,0,1,.28,9.52c-.76,9.1-1.45,24.33,1.93,28.55C704.06,138.38,713.87,149.42,715.09,160.46Z"
     opacity="0.2"
     id="path118" />
  <path
     d="M675.84,152.66c-11,10.6-7.36,17.62-7.36,17.62,1.23,9.81-12.26,14.72-12.26,14.72a12.34,12.34,0,0,0-1.8,1.22h0a46.31,46.31,0,0,1-7.64-.59,2,2,0,0,1-1.41-3l6.56-11.11,1.23-8.38,11.65-3.88-.67-12c14-7.09,16.42-19.28,16.42-19.28L682,140.19C683.2,146.88,675.84,152.66,675.84,152.66Z"
     fill="#f9b499"
     id="path120" />
  <path
     d="M664.13,147.24l.46,8.14a23.33,23.33,0,0,0,8.59-14.71S670.81,143.83,664.13,147.24Z"
     fill="#f7a48b"
     id="path122" />
  <rect
     x="465.47"
     y="53.13"
     width="4.91"
     height="69.92"
     transform="translate(556.02 -379.83) rotate(90)"
     fill="#fff"
     id="rect124" />
  <rect
     x="465.47"
     y="88.7"
     width="4.91"
     height="69.92"
     transform="translate(591.59 -344.26) rotate(90)"
     fill="#fff"
     id="rect126" />
  <rect
     x="450.75"
     y="120.6"
     width="4.91"
     height="40.48"
     transform="translate(594.04 -312.37) rotate(90)"
     fill="#fff"
     id="rect128" />
  <rect
     x="447.69"
     y="88.09"
     width="4.91"
     height="34.35"
     transform="translate(555.4 -344.87) rotate(90)"
     fill="#fff"
     id="rect130" />
  <rect
     x="485.71"
     y="90.54"
     width="4.91"
     height="29.44"
     transform="translate(593.43 -382.9) rotate(90)"
     fill="#fff"
     id="rect132" />
  <rect
     x="237.93"
     y="99.13"
     width="79.73"
     height="6.13"
     fill="#fff"
     id="rect134" />
  <rect
     x="237.93"
     y="119.98"
     width="79.73"
     height="6.13"
     fill="#fff"
     id="rect136" />
  <rect
     x="237.93"
     y="140.84"
     width="40.48"
     height="6.13"
     fill="#fff"
     id="rect138" />
  <rect
     x="285.77"
     y="140.84"
     width="31.89"
     height="6.13"
     fill="#fff"
     id="rect140" />
  <path
     d="M206,284.35l-4.59,19.48a2.87,2.87,0,0,0,.61,2.51c3.22,3.78,12.56,14.81,19.92,12.36,0,0,8.59-2.8,6.75-14.28a21.53,21.53,0,0,1,0-6.57l-19-17.18Z"
     fill="#f9b499"
     id="path142" />
  <path
     d="M228.73,297.85a20.19,20.19,0,0,0,0,6.57l.24,2.5s-14.6-3.75-15.7-15.61C213.27,291.31,219.53,297.85,228.73,297.85Z"
     fill="#f7a48b"
     id="path144" />
  <ellipse
     cx="466.7"
     cy="225.48"
     rx="6.75"
     ry="8.59"
     fill="#f9b499"
     id="ellipse146" />
  <ellipse
     cx="420.09"
     cy="224.25"
     rx="6.75"
     ry="8.59"
     fill="#f9b499"
     id="ellipse148" />
  <path
     d="M510.88,377.77a.19.19,0,0,1,.37.09c-.36,7.42.39,11.6,1.22,13.83a1.7,1.7,0,0,0,3.17.09c1.57-3.81,3.25-11.19,4-14.71a.14.14,0,0,1,.27.05c-.4,6.93.37,10.79,1.17,12.88a2,2,0,0,0,3.61.09c1.46-3.19,2.23-9,2.55-12a12.45,12.45,0,0,0-.35-4.63c-3-10.75-16.67-11.37-16.67-11.37l-2.42,23.05Z"
     fill="#f9b499"
     id="path150" />
  <polygon
     points="376.72 333.42 385.13 409.47 505.5 409.47 513.1 333.42 376.72 333.42"
     fill="#2f2e41"
     id="polygon152" />
  <rect
     x="385.13"
     y="409.47"
     width="120.21"
     height="4.91"
     fill="#2f2e41"
     id="rect154" />
  <rect
     x="385.13"
     y="409.47"
     width="120.21"
     height="4.91"
     opacity="0.2"
     id="rect156" />
  <polygon
     points="385.13 414.38 377.77 435.23 514.11 435.23 505.34 414.38 385.13 414.38"
     opacity="0.2"
     id="polygon158" />
  <path
     d="M376.72,333.42l8.14,73.67S398.62,396,420.7,389.85c0,0,25.79-3.37,53.79-24a58.5,58.5,0,0,0,6.44-5.53c6.69-6.62,24.58-23.9,32.17-26.86Z"
     opacity="0.2"
     id="path160" />
  <ellipse
     cx="444.62"
     cy="373.9"
     rx="16.56"
     ry="12.27"
     fill="#fff"
     id="ellipse162" />
  <polygon
     points="286.21 415.21 286.21 422.62 356.96 422.62 356.96 415.5 286.21 415.21"
     fill="#e6e6e6"
     id="polygon164" />
  <polygon
     points="356.75 415.55 286.21 415.21 315.08 396 368.81 397.44 356.75 415.55"
     fill="#4438e0"
     id="polygon166" />
  <polygon
     points="356.76 415.5 356.96 422.62 369.03 405.75 369.03 397.44 356.76 415.5"
     fill="#4438e0"
     id="polygon168" />
  <polygon
     points="356.76 415.5 356.96 422.62 369.03 405.75 369.03 397.44 356.76 415.5"
     opacity="0.2"
     id="polygon170" />
  <polygon
     points="359.72 403.65 283.25 403.37 312.12 384.15 371.99 385.59 359.72 403.65"
     fill="#2f2e41"
     id="polygon172" />
  <polygon
     points="361.2 391.8 284.73 391.51 313.6 372.3 373.47 373.74 361.2 391.8"
     fill="#4438e0"
     id="polygon174" />
  <polygon
     points="361.2 391.8 361.2 401.14 373.47 382.05 373.47 373.74 361.2 391.8"
     fill="#4438e0"
     id="polygon176" />
  <polygon
     points="361.2 391.8 361.2 401.14 373.47 382.05 373.47 373.74 361.2 391.8"
     opacity="0.2"
     id="polygon178" />
  <polygon
     points="361.2 391.8 361.2 401.14 284.73 401.14 284.73 391.51 361.2 391.8"
     fill="#e6e6e6"
     id="polygon180" />
  <polygon
     points="359.72 403.65 359.72 412.99 371.99 393.9 371.99 385.59 359.72 403.65"
     fill="#2f2e41"
     id="polygon182" />
  <polygon
     points="359.72 403.65 359.72 412.99 371.99 393.9 371.99 385.59 359.72 403.65"
     opacity="0.2"
     id="polygon184" />
  <polygon
     points="359.72 403.65 359.72 412.99 283.25 412.99 283.25 403.37 359.72 403.65"
     fill="#e6e6e6"
     id="polygon186" />
  <ellipse
     cx="685.66"
     cy="120.6"
     rx="9.81"
     ry="10.43"
     fill="#f9b499"
     id="ellipse188" />
  <ellipse
     cx="228.73"
     cy="270.25"
     rx="23.92"
     ry="27.6"
     fill="#f9b499"
     id="ellipse190" />
  <path
     d="M212.17,278.83a8,8,0,1,1-8-8,7.73,7.73,0,0,1,2.85.54A7.94,7.94,0,0,1,212.17,278.83Z"
     fill="#f9b499"
     id="path192" />
  <path
     d="M250.65,259.2,248,253.9s-13.24,0-19-1.33c0,0,.35,2.34,5.26,4.8,0,0-7.47,2.07-19.06-2,0,0,.25,10.48-8.14,16.07a7.73,7.73,0,0,0-2.85-.54,8,8,0,0,0-7.88,6.76l-.1.06a43.2,43.2,0,0,1-3.81-5.86v0c-4-7.34-7.85-19.65,6.27-25.46,0,0-4.91-13.49,12.26-17.17,0,0,23.31-6.14,22.08,4.9,0,0,23.31,0,13.49,11C246.51,245.1,259.69,250,250.65,259.2Z"
     fill="#2f2e41"
     id="path194" />
  <path
     d="M250.65,259.2,248,253.9s-13.24,0-19-1.33c0,0,.35,2.34,5.26,4.8,0,0-7.47,2.07-19.06-2,0,0,.25,10.48-8.14,16.07a7.73,7.73,0,0,0-2.85-.54,8,8,0,0,0-7.88,6.76l-.1.06a43.2,43.2,0,0,1-3.81-5.86v0s2.19-20.32,17.11-18c0,0-2.26-12.38,23.5-19.74,0,0,23.31,0,13.49,11C246.51,245.1,259.69,250,250.65,259.2Z"
     opacity="0.2"
     id="path196" />
</svg>
